<?xml version="1.0" standalone="no"?>
<!DOCTYPE svg PUBLIC "-//W3C//DTD SVG 20010904//EN"
 "http://www.w3.org/TR/2001/REC-SVG-20010904/DTD/svg10.dtd">
<svg version="1.0" xmlns="http://www.w3.org/2000/svg"
 width="610.000000pt" height="409.000000pt" viewBox="0 0 610.000000 409.000000"
 preserveAspectRatio="xMidYMid meet">

<g transform="translate(0.000000,409.000000) scale(0.100000,-0.100000)"
fill="#000000" stroke="none">
<path d="M1978 3675 c-48 -13 -156 -74 -178 -100 -18 -21 -29 -19 -23 5 5 19
3 20 -23 8 -16 -6 -45 -23 -64 -37 -19 -14 -44 -24 -55 -23 -24 3 -111 -52
-126 -80 -6 -11 -17 -17 -25 -14 -15 6 -44 -40 -44 -72 0 -11 -17 -27 -47 -43
-25 -13 -61 -32 -79 -41 -44 -23 -128 -111 -149 -154 -9 -20 -25 -44 -36 -55
-10 -10 -19 -30 -19 -44 0 -24 -3 -25 -33 -20 -35 7 -96 -12 -121 -37 -48 -49
-81 -150 -72 -221 5 -32 3 -54 -5 -63 -6 -8 -9 -24 -6 -35 3 -13 -3 -39 -14
-61 -11 -21 -17 -43 -14 -49 4 -5 -1 -32 -10 -60 -22 -66 -16 -149 13 -189 12
-16 22 -43 22 -60 0 -36 24 -97 49 -125 10 -11 21 -33 25 -48 4 -15 18 -37 31
-49 14 -12 25 -29 25 -38 0 -20 29 -61 30 -42 0 8 15 -5 32 -29 54 -69 101
-102 148 -102 38 0 43 -3 61 -39 l20 -39 -20 -55 c-12 -30 -21 -65 -21 -78 0
-16 -10 -27 -37 -41 -73 -35 -138 -55 -179 -55 -38 0 -43 -3 -53 -30 -10 -29
2 -90 17 -90 4 0 15 -7 26 -15 18 -13 17 -15 -10 -39 -38 -32 -25 -44 54 -48
60 -3 62 -4 62 -30 0 -14 5 -28 12 -30 8 -3 5 -16 -10 -42 -12 -20 -22 -44
-22 -51 0 -17 -196 -116 -214 -109 -7 3 -18 -1 -24 -9 -8 -10 -27 -13 -60 -10
-39 4 -54 0 -85 -21 -21 -14 -44 -26 -52 -26 -7 0 -24 -13 -37 -29 -18 -24
-50 -39 -156 -75 -74 -25 -165 -62 -204 -83 -110 -59 -278 -232 -278 -287 0
-16 8 -9 35 28 56 79 145 166 215 211 61 39 141 74 286 125 l62 21 31 -32 c18
-17 34 -44 38 -59 5 -27 37 -50 69 -50 10 0 13 -7 8 -24 -9 -39 4 -62 56 -100
54 -39 64 -71 35 -110 -20 -27 -30 -122 -15 -141 16 -20 39 -19 62 2 23 21 23
3 -1 -28 -10 -13 -24 -41 -30 -61 -20 -62 2 -75 58 -34 18 14 40 22 51 19 17
-4 18 -11 13 -49 -7 -51 13 -90 52 -100 14 -3 25 -13 25 -23 0 -9 7 -27 16
-39 12 -18 25 -22 65 -22 l49 0 0 60 c0 52 3 60 18 60 29 0 52 -33 52 -73 0
-20 5 -37 10 -37 18 0 10 67 -11 94 -28 36 -18 43 28 19 27 -14 45 -34 63 -71
26 -52 40 -65 40 -36 0 9 9 32 21 50 l21 34 -26 0 c-14 0 -26 -4 -26 -10 0
-16 -17 -12 -24 6 -3 8 1 29 9 45 15 28 15 30 -7 38 -15 5 -27 4 -36 -5 -15
-15 -32 -18 -32 -6 0 4 9 18 20 32 11 14 20 30 20 37 0 18 -32 21 -63 5 -40
-19 -46 -7 -14 26 15 16 27 33 27 39 0 37 28 5 126 -142 96 -145 112 -165 136
-165 26 0 26 0 -39 112 -36 62 -103 168 -149 235 -46 68 -84 126 -84 129 0 17
263 -364 296 -427 13 -27 29 -49 34 -49 15 0 -15 65 -55 121 -19 27 -35 51
-35 54 0 3 -17 28 -37 57 -50 69 -50 80 1 54 22 -12 68 -32 101 -45 67 -26
152 -65 366 -170 l146 -72 144 3 144 3 -50 23 c-66 31 -99 45 -165 72 -117 47
-495 216 -813 364 -42 20 -82 35 -88 33 -5 -1 -20 14 -32 34 -38 62 -79 119
-86 119 -18 0 -50 41 -44 57 5 12 3 14 -7 8 -8 -5 -11 -4 -6 3 3 6 -2 24 -11
39 -32 51 -154 203 -164 203 -5 0 -9 7 -9 15 0 25 13 16 63 -43 108 -129 157
-196 255 -352 38 -61 45 -66 94 -79 29 -8 65 -14 80 -15 14 -1 24 -4 22 -7 -2
-4 36 -6 84 -6 74 0 80 1 37 7 -27 4 -45 8 -40 9 22 3 -22 20 -70 26 -27 4
-56 12 -62 17 -7 6 -29 8 -48 6 -26 -3 -35 0 -35 11 0 8 -3 12 -6 8 -8 -8 -33
16 -27 26 2 4 0 7 -5 7 -5 0 -33 35 -62 78 -87 127 -161 224 -208 274 l-45 48
39 16 c51 21 230 111 269 134 l30 19 1 -25 c2 -25 -10 -33 -20 -11 -3 6 -4 3
-3 -8 2 -17 9 -19 40 -17 40 4 50 -12 20 -33 -20 -15 -7 -39 18 -32 23 6 35
-9 14 -17 -8 -3 -15 -15 -15 -26 0 -22 17 -25 68 -11 38 11 44 -5 12 -34 -15
-14 -17 -21 -9 -31 15 -18 87 -7 114 17 20 18 20 17 17 -37 -3 -43 -1 -54 12
-54 8 0 19 8 25 17 14 26 25 9 11 -17 -9 -16 -9 -25 1 -36 16 -19 20 -18 51
10 29 28 40 24 32 -10 -9 -34 21 -43 50 -15 32 30 37 26 30 -19 -5 -33 -4 -40
10 -40 9 0 25 14 35 31 l19 31 -5 -46 c-7 -60 16 -62 53 -6 15 22 29 38 31 36
3 -3 5 -21 5 -41 0 -52 30 -65 59 -26 23 32 39 32 39 1 0 -22 28 -34 46 -19 8
6 14 20 14 31 0 11 5 18 13 15 6 -2 12 -14 12 -28 0 -15 7 -25 18 -27 23 -5
47 15 47 39 0 29 19 32 30 5 11 -30 44 -35 58 -10 8 15 13 14 44 -10 43 -32
68 -34 68 -5 0 18 2 19 15 9 9 -7 13 -15 11 -18 -3 -2 2 -11 10 -19 19 -19 41
-10 46 19 4 22 5 22 16 -5 14 -33 45 -34 50 -2 7 34 19 38 52 15 33 -24 60
-21 60 6 0 16 1 16 18 1 38 -34 75 -11 52 32 -13 25 -8 26 31 6 37 -20 53 -11
45 26 -5 25 -3 27 22 26 24 -2 27 1 26 31 -1 33 10 43 20 17 3 -8 15 -15 27
-15 19 0 20 4 14 38 -4 28 -2 42 9 51 8 7 13 18 10 25 -11 29 28 23 78 -10 67
-45 63 -40 50 -67 -6 -12 -13 -98 -16 -192 -6 -214 -27 -326 -102 -538 -20
-56 -38 -110 -41 -119 -4 -15 1 -18 34 -18 45 0 37 -13 87 160 63 222 79 311
83 465 4 126 1 162 -15 225 -19 70 -20 92 -6 78 3 -3 12 -30 20 -59 46 -173
18 -456 -71 -739 -43 -134 -42 -132 -9 -128 26 3 31 10 50 67 21 67 38 86 48
54 3 -10 19 -27 36 -36 49 -30 32 -59 -18 -33 -28 14 -42 13 -42 -5 0 -5 21
-17 46 -29 39 -17 67 -20 175 -20 97 0 129 3 129 13 0 31 -30 226 -39 257 -6
19 -11 36 -11 38 0 1 10 -3 23 -9 13 -7 4 7 -25 38 -89 96 -116 190 -103 361
5 59 8 131 7 159 -3 57 5 64 33 33 29 -32 39 -23 11 11 -28 33 -42 72 -31 89
4 6 13 2 24 -11 31 -38 30 -7 -1 86 -32 96 -90 181 -150 222 -44 30 -115 103
-100 103 7 0 12 -4 12 -10 0 -5 8 -10 18 -10 21 1 52 23 52 39 0 6 2 11 5 11
10 0 114 -79 122 -93 4 -7 30 -30 56 -51 37 -30 57 -58 87 -122 21 -45 43 -85
49 -89 14 -8 14 -8 -11 71 -12 38 -23 74 -25 79 -17 56 -53 148 -64 163 -100
136 -145 190 -215 261 -46 46 -84 87 -84 91 0 4 14 -5 31 -21 17 -16 36 -29
43 -29 17 0 56 29 56 42 0 6 -8 4 -18 -5 -26 -23 -45 -21 -72 8 -20 21 -22 28
-12 50 6 14 18 25 26 25 16 0 88 -63 170 -148 28 -30 84 -87 123 -129 61 -62
76 -84 89 -131 8 -32 23 -73 33 -92 48 -93 76 -140 79 -132 1 5 -11 46 -27 92
-28 80 -29 112 -4 117 7 2 21 -9 30 -25 10 -15 25 -32 34 -39 8 -6 37 -31 63
-55 27 -24 56 -47 66 -53 9 -5 36 -26 58 -46 33 -28 42 -43 42 -68 0 -64 -33
-246 -46 -257 -9 -7 -10 -14 -3 -21 6 -6 6 -70 -2 -190 -12 -175 -12 -184 9
-261 12 -44 22 -96 22 -116 0 -21 4 -56 9 -79 5 -23 15 -68 21 -99 11 -54 24
-77 37 -65 3 3 1 21 -5 39 -5 18 -15 73 -22 123 -6 50 -21 131 -32 180 -23
100 -32 209 -19 233 6 11 22 -11 60 -89 53 -108 62 -138 110 -352 16 -71 32
-131 35 -134 24 -24 12 54 -42 267 -32 125 -71 220 -125 302 -34 52 -35 54
-30 136 6 81 6 82 33 82 65 0 80 75 26 130 -41 42 -38 63 5 48 23 -8 40 -6 75
7 53 20 71 44 79 105 4 25 11 55 17 67 8 17 8 33 0 62 -7 21 -12 41 -12 44 0
9 69 -17 148 -57 71 -36 127 -46 134 -25 2 7 24 2 58 -14 30 -14 62 -28 70
-30 9 -3 26 -34 39 -71 13 -36 29 -66 36 -66 7 0 16 -17 20 -38 3 -20 10 -44
15 -52 14 -22 25 -3 12 23 -6 12 -16 47 -23 77 -7 30 -14 49 -16 43 -8 -24
-20 -13 -32 28 -14 45 -62 129 -74 129 -4 0 -3 -9 3 -21 16 -29 7 -34 -27 -15
-34 19 -102 46 -115 46 -6 0 -8 -7 -4 -15 9 -24 -21 -18 -88 18 -92 50 -201
83 -179 55 16 -20 26 -88 13 -88 -6 0 -8 -15 -4 -42 l7 -43 -23 20 c-17 15
-24 17 -27 7 -4 -10 -8 -10 -20 0 -14 11 -15 10 -9 -10 6 -17 4 -21 -8 -16 -8
3 -18 14 -21 25 -4 11 -10 17 -15 14 -5 -3 -18 7 -29 21 -12 16 -21 21 -21 13
-1 -17 -39 50 -40 69 0 6 9 12 19 12 11 0 23 5 26 10 10 17 25 11 25 -10 0
-36 41 -23 91 28 46 47 70 100 68 152 l-1 25 -8 -25 c-4 -14 -11 -37 -14 -52
-4 -16 -10 -27 -15 -25 -5 1 -24 -20 -42 -48 -39 -57 -69 -71 -69 -32 0 20 -4
23 -25 19 -21 -4 -25 -1 -25 22 0 16 -4 24 -13 21 -9 -4 -11 7 -9 40 4 39 -2
54 -42 116 -25 39 -53 94 -63 123 -13 37 -18 45 -21 29 -2 -12 2 -31 7 -42 18
-32 13 -41 -17 -35 -17 4 -71 48 -145 120 -120 116 -232 204 -260 204 -19 0
-66 54 -84 98 -11 27 -17 31 -28 22 -10 -9 -18 0 -39 44 -14 30 -26 64 -26 76
0 11 -7 23 -15 26 -21 8 -20 70 1 78 9 4 24 0 33 -7 9 -8 21 -13 27 -10 6 2
14 -5 17 -17 7 -26 35 -26 64 2 20 19 25 20 33 8 8 -12 13 -13 29 -3 10 6 27
9 38 7 11 -3 26 3 37 15 14 15 23 18 31 11 13 -11 45 -4 45 10 0 4 11 19 25
33 15 14 29 42 32 64 4 21 12 43 19 48 17 13 14 136 -4 158 -7 8 -10 21 -6 30
9 24 -13 54 -59 81 -85 49 -145 42 -231 -27 -56 -45 -108 -65 -189 -72 -88 -9
-80 -17 15 -17 84 1 153 27 211 79 46 43 116 41 136 -3 20 -45 13 -89 -21
-137 -51 -71 -112 -146 -120 -146 -5 -1 -8 12 -8 27 0 16 -8 36 -17 45 -33 29
-135 77 -164 77 -16 0 -29 5 -29 12 0 9 -3 9 -11 1 -7 -7 -21 -5 -47 8 -42 20
-188 52 -244 53 -54 0 -51 22 9 64 18 12 45 22 61 22 30 0 48 16 71 61 13 26
63 60 109 74 21 6 22 3 22 -39 0 -25 4 -48 10 -51 6 -4 7 5 4 24 -17 84 27
116 161 116 87 0 92 1 129 32 21 17 44 29 51 27 7 -3 16 -1 20 5 10 17 106 14
99 -2 -3 -10 16 -17 72 -25 83 -13 103 -20 84 -32 -7 -5 2 -15 27 -30 32 -19
35 -24 19 -29 -19 -7 -19 -8 82 -91 21 -17 22 -17 22 -1 0 22 -36 65 -47 58
-14 -9 -36 10 -38 32 -2 30 -48 91 -68 91 -10 0 -26 4 -36 10 -10 5 -34 10
-54 12 -22 1 -33 6 -30 14 7 19 -15 27 -68 25 -27 0 -49 4 -49 9 0 16 -52 -12
-82 -43 -16 -16 -28 -26 -28 -22 0 4 -11 0 -25 -9 -26 -17 -39 -21 -32 -8 3 4
-14 6 -38 6 -23 -1 -48 2 -56 7 -12 7 -12 9 0 9 8 0 11 3 8 7 -4 3 -31 -10
-61 -31 -29 -20 -76 -45 -104 -55 -59 -20 -83 -39 -124 -98 -21 -32 -36 -43
-55 -43 -14 0 -41 -9 -59 -21 -33 -20 -33 -20 -53 0 -33 33 -58 171 -31 171 5
0 13 19 16 41 4 26 18 52 35 70 16 17 29 27 29 23 0 -3 22 17 49 46 36 38 54
51 67 46 10 -4 29 3 48 17 49 37 120 70 124 59 2 -6 42 9 90 34 96 49 127 56
117 24 -6 -20 -6 -20 40 0 26 11 54 20 62 20 14 0 13 -3 -3 -21 l-18 -20 79 6
c68 5 76 4 55 -7 -24 -12 -24 -12 15 -16 39 -3 75 -22 45 -22 -8 -1 1 -8 20
-16 31 -14 33 -17 15 -24 -19 -7 -18 -9 8 -19 78 -31 117 -53 129 -75 30 -54
90 -124 132 -154 27 -19 43 -38 40 -46 -3 -9 6 -16 28 -21 28 -7 30 -9 10 -12
-19 -4 -14 -10 38 -45 33 -22 60 -44 60 -49 0 -12 -36 -12 -59 0 -10 6 -23 6
-31 1 -17 -10 7 -21 85 -41 89 -21 226 -94 299 -158 38 -34 74 -61 79 -61 15
0 139 -86 183 -127 37 -34 89 -91 149 -164 46 -55 93 -127 119 -182 16 -32 44
-77 65 -100 87 -101 196 -274 288 -458 54 -108 67 -153 38 -129 -8 6 -14 15
-13 18 2 20 -5 34 -31 64 -16 18 -32 48 -35 65 -4 18 -12 36 -18 40 -8 4 -9 0
-5 -13 6 -17 6 -17 -6 -3 -14 18 -32 6 -32 -21 0 -18 27 -49 38 -43 7 4 11
-13 8 -31 -1 -5 6 -18 17 -30 19 -22 55 -92 72 -141 l10 -30 -20 25 c-11 14
-20 31 -20 38 0 6 -4 12 -10 12 -5 0 -17 14 -26 32 -9 17 -27 43 -40 56 -16
18 -20 30 -14 42 5 9 5 22 -1 31 -7 11 -9 9 -9 -9 0 -19 -2 -21 -12 -10 -35
37 -49 84 -23 74 9 -3 15 0 15 9 0 8 5 15 11 15 8 0 8 5 -1 15 -8 9 -9 15 -2
15 6 0 14 -4 17 -10 3 -5 12 -10 18 -9 9 0 9 2 0 6 -7 2 -13 10 -13 17 0 6 -8
12 -19 13 -13 1 -18 -5 -17 -20 1 -12 -2 -22 -5 -22 -3 0 -13 -6 -22 -13 -13
-11 -17 -10 -28 10 -6 13 -8 20 -4 15 5 -4 16 4 25 18 20 30 18 99 -2 123 -9
9 -23 31 -31 47 l-16 30 -1 -28 c0 -16 4 -36 9 -45 5 -9 12 -39 15 -65 7 -46
6 -48 -15 -45 -12 2 -25 9 -27 17 -3 10 0 12 11 8 9 -3 19 -1 23 5 4 7 3 8 -4
4 -7 -4 -12 -2 -12 4 0 6 -4 8 -10 5 -5 -3 -23 9 -41 27 -17 18 -27 26 -23 18
7 -13 6 -13 -10 -1 -9 8 -15 20 -12 28 4 9 1 11 -6 7 -8 -5 -9 -2 -5 10 4 10
7 23 7 29 0 7 4 6 10 -3 5 -8 12 -12 15 -8 4 3 1 15 -6 26 l-13 21 -18 -21
c-17 -20 -18 -20 -25 -2 -4 11 -16 27 -28 37 -11 10 -13 16 -5 12 9 -4 7 0 -3
8 -11 9 -17 25 -16 39 2 13 0 28 -3 34 -4 5 -8 31 -9 57 -2 26 -6 47 -10 47
-4 0 -10 12 -15 28 -6 22 -9 14 -14 -43 -5 -52 -4 -73 7 -83 16 -17 17 -26 1
-16 -8 5 -9 2 -5 -9 4 -10 2 -17 -4 -17 -7 0 -9 -11 -7 -25 4 -20 2 -23 -11
-15 -9 4 -25 18 -36 31 -11 12 -15 19 -8 16 8 -5 8 -1 0 17 -7 13 -14 23 -17
21 -3 -2 -12 6 -19 17 -12 19 -11 20 5 14 15 -6 14 -2 -5 18 -22 23 -23 30
-14 61 6 19 7 35 3 35 -5 0 -10 -6 -13 -12 -2 -7 -4 5 -4 27 0 22 -3 54 -7 70
-7 28 -6 29 8 11 8 -10 13 -23 10 -28 -3 -5 -2 -8 3 -7 19 3 23 -2 14 -20 -8
-13 -7 -22 2 -29 14 -11 48 -12 41 -1 -2 5 -11 6 -18 3 -8 -3 -17 -1 -20 4 -6
10 28 8 56 -3 11 -4 20 0 28 14 6 12 7 21 3 21 -4 0 -2 4 5 8 10 7 8 15 -9 36
l-21 27 -22 -20 -22 -21 -28 29 c-17 18 -25 34 -21 42 6 8 4 10 -5 4 -9 -6
-10 -2 -5 16 4 13 12 26 17 28 6 2 -5 17 -22 33 -39 35 -49 32 -15 -4 14 -16
21 -30 15 -33 -6 -3 -10 -2 -10 4 0 6 -7 8 -16 4 -9 -3 -20 0 -25 8 -7 12 -10
12 -21 0 -7 -8 -8 -11 -2 -8 13 8 27 -20 18 -34 -3 -5 -10 -6 -16 -3 -7 5 -8
2 -4 -5 5 -7 10 -10 13 -7 3 3 13 -2 21 -11 25 -25 21 -172 -5 -180 -14 -5
-74 73 -79 105 -5 27 -34 66 -34 46 0 -13 -49 -64 -61 -64 -5 0 -20 24 -34 54
-14 30 -33 57 -42 60 -16 6 -16 5 -1 -11 9 -10 19 -33 21 -51 3 -19 12 -41 20
-50 8 -10 17 -29 21 -44 6 -26 26 -40 26 -18 0 6 11 10 24 10 14 0 28 5 31 10
9 15 38 -17 39 -43 1 -14 8 -22 18 -21 11 1 14 -4 10 -14 -4 -11 -1 -14 11 -9
11 4 17 0 19 -15 3 -20 4 -20 28 5 26 25 26 25 29 4 2 -12 4 -34 5 -49 0 -14
4 -24 7 -22 10 6 31 -24 25 -34 -3 -6 4 -12 16 -16 23 -5 23 -6 3 -21 -11 -9
-14 -14 -8 -10 15 7 56 -13 49 -24 -3 -4 11 -7 30 -6 19 0 39 7 43 14 14 22
21 -4 15 -52 -5 -33 -10 -44 -20 -40 -9 3 -14 -2 -14 -17 0 -19 1 -20 16 -6
23 24 32 20 39 -17 7 -33 -9 -92 -22 -84 -11 7 -33 -19 -25 -28 4 -4 -5 0 -20
9 -15 10 -33 28 -42 40 -14 22 -13 24 7 35 12 6 15 10 6 7 -9 -2 -27 8 -41 23
-29 31 -62 101 -47 101 5 0 9 7 9 15 0 9 -6 12 -15 9 -16 -7 -17 -5 -20 41 -1
17 3 33 9 37 10 7 2 10 -20 7 -4 0 -10 4 -14 10 -3 7 -14 9 -23 5 -14 -5 -14
-8 -3 -20 8 -7 12 -24 9 -36 -4 -19 -3 -20 6 -8 9 12 11 11 11 -7 0 -23 9 -50
42 -120 31 -69 4 -85 -50 -30 -23 24 -31 39 -26 53 4 12 3 15 -3 7 -12 -16
-56 48 -47 70 3 9 10 14 15 11 5 -3 9 -1 9 5 0 16 -18 22 -23 9 -5 -14 -42 28
-42 47 -1 6 -6 19 -12 30 -20 35 -28 -9 -9 -49 9 -19 16 -44 16 -56 0 -20 -2
-21 -17 -9 -14 12 -16 12 -9 -1 5 -8 -15 9 -43 38 -28 29 -49 58 -46 63 4 5
-1 12 -9 15 -19 7 -50 88 -42 110 5 14 4 15 -9 4 -13 -11 -14 -10 -9 4 3 9 1
16 -4 16 -6 0 -18 24 -26 54 -19 63 -21 89 -6 66 5 -8 10 -10 10 -4 0 16 -10
23 -26 17 -15 -6 -47 -63 -39 -71 3 -3 5 0 5 6 0 21 16 13 28 -13 17 -38 16
-68 -4 -61 -8 3 -12 2 -9 -4 14 -22 -15 -8 -44 22 -30 31 -36 45 -31 78 1 11
-3 9 -15 -5 -9 -11 -14 -14 -10 -7 3 6 2 12 -2 12 -5 0 -16 12 -25 28 -16 26
-16 27 9 29 33 2 46 16 45 50 -3 48 -8 67 -22 71 -9 3 -11 -2 -6 -22 4 -15 2
-26 -4 -26 -5 0 -10 -5 -10 -11 0 -5 5 -7 10 -4 16 10 12 -11 -5 -25 -11 -9
-19 -8 -37 4 -13 9 -23 22 -23 29 -1 6 -7 11 -14 9 -7 -1 -10 2 -7 7 4 5 0 12
-6 14 -9 4 -9 6 -1 6 6 1 9 10 5 23 -5 19 -6 19 -11 5 -5 -14 -10 -12 -25 14
-13 22 -14 29 -5 24 8 -5 3 5 -11 21 -14 16 -26 30 -27 32 0 2 -6 -20 -12 -48
-8 -35 -8 -57 -1 -68 8 -13 9 -11 4 11 -7 33 3 36 15 5 13 -34 -3 -56 -35 -50
-34 6 -106 81 -99 103 4 11 -1 18 -15 22 -36 9 -33 -13 11 -71 24 -31 43 -59
43 -62 0 -19 121 -36 132 -19 3 5 -3 6 -13 3 -17 -5 -17 -5 1 10 17 14 20 13
40 -12 31 -37 39 -64 24 -74 -10 -6 -10 -8 0 -8 6 0 12 -8 12 -18 0 -10 4 -22
10 -28 5 -5 11 -18 13 -29 1 -11 6 -26 10 -32 5 -7 5 -18 1 -25 -4 -6 -3 -8 3
-5 6 4 13 -7 16 -26 2 -17 0 -35 -5 -38 -5 -3 -9 -10 -8 -15 3 -20 -28 -13
-73 17 -33 22 -47 38 -47 54 0 27 -24 50 -41 39 -7 -4 -9 -3 -6 3 4 6 -5 18
-19 28 -15 9 -23 22 -20 30 3 8 0 17 -6 21 -7 5 -8 2 -3 -6 5 -8 4 -11 -3 -6
-6 3 -16 23 -23 44 -6 20 -15 39 -18 42 -11 9 -66 125 -64 137 0 7 -4 10 -9 7
-5 -3 -6 -13 -3 -23 15 -36 24 -74 16 -65 -13 13 -51 147 -50 175 0 22 1 23 9
4 6 -14 9 -15 9 -5 1 9 -5 22 -11 28 -10 10 -10 15 2 22 10 6 11 10 3 10 -13
0 -13 26 0 48 5 6 6 12 3 12 -3 0 2 8 12 18 9 11 25 33 34 50 16 30 18 31 45
17 15 -8 33 -15 39 -15 7 0 19 -10 27 -22 8 -13 34 -42 57 -66 31 -32 48 -42
68 -40 17 2 26 -2 25 -9 -2 -7 4 -10 12 -7 11 5 12 11 2 31 -8 19 -8 26 2 32
9 6 8 15 -6 39 -18 32 -37 40 -48 23 -3 -5 -1 -12 5 -16 15 -9 12 -55 -4 -55
-14 0 -33 18 -36 35 -1 6 -4 12 -7 15 -4 3 -3 -2 1 -10 4 -8 -11 4 -33 27 -46
48 -77 67 -91 58 -11 -7 -40 18 -40 34 0 6 5 11 11 11 5 0 7 5 4 10 -3 6 -1
10 4 10 16 0 13 33 -4 56 -17 22 -20 12 -5 -17 7 -13 7 -19 0 -19 -5 0 -10 -9
-10 -20 0 -11 -4 -20 -9 -20 -5 0 -12 -15 -15 -34 -4 -21 -28 -58 -66 -101
-46 -52 -60 -76 -66 -110 -9 -63 7 -149 42 -232 38 -90 51 -115 105 -200 127
-204 293 -373 381 -390 23 -4 59 -30 118 -88 47 -45 138 -119 202 -164 132
-93 192 -144 181 -155 -4 -4 0 -4 9 -1 11 4 20 -1 27 -14 16 -29 13 -39 -4
-17 -8 11 -15 15 -15 9 0 -6 11 -25 25 -41 14 -17 25 -33 25 -37 0 -3 6 -13
14 -20 12 -12 15 -12 20 2 4 9 4 18 1 21 -3 3 -5 -1 -5 -9 0 -8 -9 0 -20 16
-11 17 -20 33 -20 37 0 12 29 2 50 -17 11 -10 20 -14 20 -10 0 5 6 0 14 -11 8
-10 20 -19 28 -19 25 -1 93 -35 104 -53 6 -9 26 -44 44 -77 52 -96 161 -249
286 -405 64 -80 147 -185 184 -235 37 -50 96 -120 130 -158 60 -65 63 -67 111
-67 52 0 61 10 31 32 -24 17 -43 53 -34 63 4 5 2 6 -3 2 -6 -3 -17 -2 -25 3
-12 7 -12 11 1 27 13 17 13 17 -4 3 -17 -12 -20 -12 -27 0 -20 35 -57 79 -62
74 -4 -3 -5 3 -4 13 0 10 -4 17 -11 16 -7 -2 -10 6 -8 18 3 16 0 19 -12 15
-11 -5 -14 -2 -9 10 5 12 2 15 -9 10 -9 -3 -14 -2 -11 3 3 5 -1 14 -10 21 -8
7 -13 19 -10 26 3 8 0 11 -8 8 -7 -3 -20 4 -31 15 -15 17 -16 23 -5 36 11 13
10 14 -4 9 -14 -6 -21 5 -17 28 0 4 -7 4 -16 1 -10 -4 -14 -2 -10 4 4 6 0 14
-9 17 -10 4 -14 12 -10 23 4 10 4 14 0 10 -6 -6 -42 34 -36 41 5 5 -23 30 -30
25 -5 -2 -8 2 -8 10 0 8 -7 20 -16 28 -10 8 -13 21 -9 37 4 17 2 22 -6 16 -9
-5 -10 0 -6 17 4 19 3 21 -5 8 -9 -14 -15 -11 -45 21 -23 26 -31 44 -27 56 4
14 3 15 -3 6 -8 -11 -12 -11 -20 0 -38 49 -19 51 31 3 21 -19 42 -35 47 -35 5
0 9 -4 9 -10 0 -5 -7 -6 -17 -3 -11 5 -14 3 -9 -6 5 -7 17 -11 27 -8 17 5 24
-4 20 -27 -1 -5 5 -6 13 -3 9 4 18 2 21 -4 4 -5 10 -7 15 -4 5 3 12 0 16 -6 5
-8 2 -10 -7 -5 -8 4 -1 -3 16 -16 16 -13 34 -23 39 -23 5 0 11 -6 14 -14 3
-10 0 -12 -12 -8 -10 4 -14 3 -11 -3 3 -5 19 -7 36 -5 27 3 29 2 17 -12 -12
-15 -11 -15 9 -5 18 10 26 7 56 -21 19 -17 110 -142 202 -277 180 -264 182
-266 190 -259 2 3 -45 77 -105 165 -246 357 -229 330 -196 309 35 -23 40 -16
21 28 -12 29 -89 135 -114 157 -3 3 -26 28 -50 55 -24 28 -67 75 -95 105 -120
128 -173 197 -184 235 -6 22 -29 70 -51 105 -21 36 -38 66 -37 67 1 1 18 -4
38 -10 26 -9 52 -33 90 -82 59 -76 78 -89 78 -53 0 21 2 20 20 -10 24 -39 45
-43 36 -6 -4 15 -10 39 -13 55 l-5 29 113 -41 c63 -22 146 -52 184 -65 183
-66 295 -102 345 -112 88 -17 153 -31 178 -38 19 -5 22 -2 22 19 0 35 -93 119
-221 198 -57 35 -135 91 -174 124 -117 101 -165 131 -392 247 -120 61 -239
125 -265 142 -49 34 -131 141 -240 313 -34 54 -77 118 -97 143 -20 24 -45 56
-56 70 -59 75 -178 181 -245 220 -41 24 -106 70 -145 103 -61 51 -127 88 -241
137 -22 10 -30 19 -27 31 4 12 -8 26 -36 45 -31 20 -38 30 -29 36 10 6 7 13
-11 27 -17 13 -20 20 -11 23 8 2 -15 18 -51 35 -35 16 -75 41 -89 55 -45 45
-90 106 -90 122 0 8 -26 27 -59 43 -33 15 -60 33 -60 39 -2 28 -29 65 -51 70
-14 4 -31 14 -38 23 -10 12 -27 15 -74 14 -50 -2 -58 0 -49 11 18 21 -2 28
-51 17 -26 -6 -47 -6 -54 0 -16 13 -68 1 -139 -33 -33 -15 -65 -28 -72 -28
-12 0 -60 -19 -121 -48 -39 -18 -44 -14 -44 34 0 29 -8 46 -40 80 -28 31 -36
44 -24 44 9 0 16 4 16 10 0 15 -39 37 -110 60 -36 12 -78 32 -95 44 -16 12
-46 30 -65 38 -19 9 -62 44 -95 78 -64 66 -100 90 -138 90 -31 0 -88 19 -108
36 -8 8 -23 14 -33 14 -13 0 -16 5 -11 21 7 20 5 21 -26 15 -26 -5 -31 -4 -21
6 7 7 12 16 12 20 0 12 -99 8 -152 -7z m295 -377 c27 -42 35 -78 18 -78 -5 0
-13 10 -17 23 -4 12 -18 39 -30 59 -27 43 -29 49 -11 42 7 -2 25 -23 40 -46z
m-143 10 c24 -40 27 -73 4 -43 -9 11 -22 32 -30 48 -21 39 2 34 26 -5z m-690
-7 c0 -11 4 -23 10 -26 13 -8 -10 -45 -28 -45 -17 0 -89 -74 -97 -100 -6 -17
-12 -20 -32 -15 -23 5 -25 3 -20 -16 4 -16 -4 -33 -29 -63 -19 -22 -39 -57
-46 -78 -10 -34 -13 -36 -41 -31 -25 5 -29 3 -24 -10 5 -13 1 -17 -18 -17 -17
0 -23 -4 -19 -14 3 -9 -3 -17 -15 -21 -24 -7 -71 -71 -71 -96 0 -9 -7 -22 -15
-29 -8 -7 -15 -23 -15 -36 0 -19 -5 -24 -25 -24 -46 0 -68 80 -44 159 38 122
104 168 198 136 18 -6 22 -5 17 4 -10 15 3 73 14 66 5 -3 20 18 33 47 34 72
60 102 140 156 116 79 127 84 127 53z m590 -74 c0 -31 -1 -31 -30 22 -38 69
-38 85 0 43 21 -22 30 -43 30 -65z m35 53 c17 -33 10 -40 -11 -12 -13 17 -19
42 -9 42 2 0 11 -13 20 -30z m458 -19 c19 -33 22 -51 7 -51 -8 0 -40 61 -40
76 0 14 18 -1 33 -25z m89 -11 c9 -19 17 -43 18 -53 0 -33 -22 -12 -46 42 -21
46 -22 52 -6 49 9 -2 25 -19 34 -38z m-971 2 c-14 -26 -15 -95 -1 -87 6 4 8
-5 4 -22 -12 -63 -8 -97 11 -90 8 4 17 1 21 -4 4 -6 19 2 36 20 35 36 63 39
86 11 13 -16 30 -21 74 -23 32 -1 58 -5 58 -9 0 -4 7 -5 15 -2 10 4 13 2 10
-8 -4 -9 -25 -21 -48 -28 -67 -21 -99 -40 -142 -80 -22 -21 -49 -41 -61 -44
-11 -3 -31 -24 -45 -46 -19 -32 -29 -39 -46 -35 -12 3 -28 -2 -37 -10 -13 -13
-15 -13 -21 5 -8 26 -19 25 -33 -2 -9 -20 -11 -18 -11 22 -1 25 3 59 8 75 4
17 5 39 1 50 -6 16 -11 8 -25 -39 -21 -71 -14 -155 16 -182 25 -23 25 -60 -1
-67 -16 -4 -20 -14 -20 -46 0 -23 -4 -41 -10 -41 -5 0 -10 7 -10 15 0 24 -25
17 -40 -10 -9 -17 -16 -21 -21 -14 -8 13 -69 -65 -69 -88 0 -7 -6 -13 -14 -13
-8 0 -17 -7 -20 -16 -10 -26 -59 -14 -74 19 -12 24 -16 26 -29 15 -14 -11 -15
-7 -12 35 2 26 0 48 -6 50 -14 5 4 42 50 101 20 27 38 55 39 62 1 7 5 17 9 20
4 4 7 12 7 17 0 9 -16 7 -55 -9 -11 -4 3 11 32 34 60 48 107 107 98 121 -4 7
-16 3 -34 -10 -34 -25 -101 -42 -101 -25 0 10 70 97 98 120 7 6 33 30 57 53
25 23 65 51 90 62 47 21 57 37 28 43 -14 3 -11 8 14 21 18 9 53 38 78 63 46
47 66 54 46 16z m1019 -67 c0 -5 -5 -3 -10 5 -5 8 -10 20 -10 25 0 6 5 3 10
-5 5 -8 10 -19 10 -25z m-115 -215 c17 -17 40 -30 54 -31 45 -1 59 -11 50 -36
-5 -13 -15 -24 -24 -24 -18 -2 -21 -3 -61 -18 -24 -9 -32 -21 -42 -57 -9 -33
-10 -50 -2 -59 8 -10 6 -15 -9 -20 -33 -10 -27 -37 7 -30 l27 6 -26 -17 c-35
-23 -100 -121 -92 -140 8 -21 26 -3 59 59 32 62 38 67 84 66 l35 -1 -32 -9
c-31 -9 -50 -25 -40 -35 3 -3 24 0 48 6 55 15 93 -2 85 -36 -4 -13 -1 -34 6
-49 18 -39 1 -47 -107 -48 -93 -2 -98 -3 -121 -30 -13 -16 -29 -25 -34 -22
-13 8 -13 52 0 60 6 3 10 12 10 18 0 15 -64 -57 -85 -95 -18 -32 -34 -35 -64
-10 -30 24 -19 62 18 62 15 0 36 6 47 14 19 14 19 15 -1 22 -11 4 -24 13 -28
21 -12 19 -24 16 -30 -7 -3 -11 -10 -20 -17 -20 -6 0 -8 5 -5 10 4 6 1 17 -5
25 -7 8 -8 15 -3 15 22 0 102 62 112 88 18 45 21 99 5 119 -7 10 -14 29 -14
43 0 28 -41 62 -48 41 -3 -9 -10 -7 -24 6 -15 13 -22 15 -25 5 -3 -6 -9 -9
-15 -6 -18 11 -79 14 -73 4 3 -6 -1 -7 -10 -4 -9 4 -43 1 -77 -6 -51 -11 -68
-21 -110 -63 -87 -87 -108 -142 -67 -171 22 -15 24 -15 89 20 19 10 55 28 80
41 35 17 40 22 22 22 -13 1 -48 -15 -79 -35 -30 -19 -57 -33 -59 -31 -9 9 68
96 97 111 38 19 85 20 118 3 35 -17 38 -37 7 -37 -26 0 -36 -23 -16 -35 19
-12 10 -21 -22 -23 -45 -3 -181 -53 -171 -63 4 -4 33 -1 63 7 74 20 183 29
204 17 15 -8 8 -14 -41 -37 -32 -16 -73 -30 -90 -33 -18 -3 -33 -10 -33 -15 0
-5 4 -7 9 -3 6 3 15 -3 21 -14 14 -27 -7 -39 -25 -15 -14 18 -17 16 -19 -16
-1 -8 -9 -16 -18 -18 -13 -3 -16 1 -11 14 4 12 2 15 -8 12 -8 -3 -14 -12 -14
-20 0 -9 -27 -34 -60 -56 -69 -47 -137 -110 -162 -153 -21 -36 -28 -36 -49 -4
-11 17 -23 24 -34 20 -9 -3 -29 4 -44 16 -19 15 -31 18 -38 11 -8 -8 -2 -16
18 -29 37 -23 39 -62 5 -75 -14 -5 -21 -14 -18 -22 3 -8 -2 -16 -14 -19 -11
-3 -19 -14 -19 -27 0 -17 4 -21 18 -15 83 34 105 39 109 28 3 -7 14 -13 26
-13 18 0 19 -2 7 -10 -11 -7 -12 -10 -2 -10 8 0 16 9 19 20 7 26 17 25 47 -5
24 -24 74 -36 61 -15 -3 6 4 10 16 10 12 0 19 3 16 6 -7 7 15 29 73 73 19 14
43 33 53 42 30 27 113 69 189 95 39 13 73 24 75 24 1 0 -6 -24 -17 -52 -18
-46 -39 -129 -82 -313 -30 -130 -31 -175 -3 -175 7 0 16 10 19 23 39 130 66
248 66 284 0 26 12 30 30 8 7 -8 17 -15 23 -15 6 0 1 10 -11 23 -26 27 -28 59
-8 115 8 22 17 60 19 84 3 24 8 53 12 65 7 22 8 22 36 -9 32 -33 33 -33 172
-9 26 4 45 6 43 3 -7 -7 62 -72 76 -72 7 1 1 11 -14 23 -35 29 -35 34 2 39 28
4 31 2 41 -35 6 -21 8 -41 5 -44 -2 -3 -20 0 -40 7 -46 15 -93 -9 -163 -84
-29 -31 -57 -57 -63 -57 -5 -1 -14 -2 -20 -3 -5 0 -11 -5 -12 -11 -2 -5 24
-13 57 -16 104 -11 139 -24 152 -60 11 -28 10 -34 -5 -45 -23 -18 -12 -17 34
2 47 20 171 15 185 -7 10 -16 12 -90 3 -114 -5 -11 -13 -1 -31 37 -50 108 -84
117 -109 31 -9 -32 -22 -71 -29 -88 l-12 -30 -27 40 c-16 22 -47 69 -70 105
-40 63 -68 81 -74 49 -2 -9 15 -44 38 -77 22 -34 40 -64 40 -68 0 -4 16 -27
36 -51 29 -35 42 -43 62 -41 23 3 30 12 53 83 l26 80 26 -58 c15 -32 27 -61
27 -65 0 -4 7 -17 15 -29 29 -42 54 -8 71 97 l6 44 21 -39 c24 -48 27 -107 8
-154 l-15 -34 -155 7 c-148 6 -211 1 -321 -24 -329 -75 -595 -67 -667 20 -7 8
-13 11 -13 5 0 -7 -3 -7 -8 0 -4 6 -29 28 -55 49 -27 21 -57 48 -67 59 -23 23
-36 16 -45 -23 -10 -47 -45 -64 -113 -56 -90 10 -168 54 -232 132 -64 77 -80
111 -80 165 0 28 4 39 15 39 10 0 15 -11 15 -35 0 -60 29 -112 94 -170 33 -30
73 -57 89 -61 43 -9 44 3 2 20 -21 9 -52 31 -70 50 -27 29 -32 42 -34 91 -2
52 0 57 16 50 10 -4 25 -9 34 -12 11 -3 14 -12 11 -29 -9 -47 7 -93 38 -109
36 -19 35 -19 55 1 14 15 21 15 57 3 37 -12 42 -11 54 6 21 28 17 44 -16 63
-20 12 -30 26 -32 47 -3 35 -20 37 -30 3 -5 -18 -6 -14 -7 15 -1 33 -9 46 -55
91 -52 49 -54 53 -35 65 24 14 52 0 121 -65 60 -56 74 -60 93 -24 8 16 15 45
15 64 0 19 4 37 9 40 4 3 11 33 15 68 5 50 14 74 44 118 52 75 95 176 122 285
10 42 6 39 321 259 35 24 44 27 65 17 32 -14 127 -14 179 0 22 6 72 15 110 19
39 4 73 8 76 9 3 0 18 -12 34 -29z m-319 -440 c0 -23 -31 -28 -39 -6 -4 10 2
16 16 19 12 2 22 5 22 6 1 0 1 -8 1 -19z m-74 -31 c-21 -8 -30 10 -11 22 8 5
16 3 21 -4 4 -7 0 -15 -10 -18z m583 -71 c10 -46 29 -105 43 -133 22 -46 23
-48 4 -32 -32 29 -70 119 -78 186 -10 89 9 76 31 -21z m-513 30 c-9 -9 -15 -9
-24 0 -9 9 -7 12 12 12 19 0 21 -3 12 -12z m-47 -20 c28 -13 31 -25 10 -52
-12 -16 -17 -17 -32 -5 -10 7 -19 14 -21 15 -4 2 9 54 14 54 2 0 15 -5 29 -12z
m-65 -13 c0 -17 -2 -18 -25 -9 -13 5 -14 8 -3 15 19 13 28 11 28 -6z m-25 -53
c-3 -7 -5 -22 -5 -32 0 -16 -3 -17 -25 -7 -19 9 -24 17 -20 32 2 11 5 26 5 32
0 10 6 10 25 1 16 -7 24 -17 20 -26z m160 28 c3 -5 -1 -10 -10 -10 -9 0 -13 5
-10 10 3 6 8 10 10 10 2 0 7 -4 10 -10z m-238 -36 c-2 -2 -12 -1 -22 2 -17 7
-17 8 1 21 17 12 19 12 22 -2 2 -9 2 -19 -1 -21z m-14 -32 c3 -4 1 -17 -4 -29
-9 -26 -49 -21 -44 5 2 10 4 25 4 35 1 14 5 16 20 7 11 -5 22 -13 24 -18z
m-73 -12 c0 -11 -7 -20 -15 -20 -18 0 -19 12 -3 28 16 16 18 15 18 -8z m115
-9 c3 -5 1 -12 -5 -16 -5 -3 -10 1 -10 9 0 18 6 21 15 7z m-126 -76 c-5 -49
-14 -54 -64 -36 -25 9 -45 20 -45 25 0 6 12 22 26 37 23 24 29 26 55 15 25 -9
30 -16 28 -41z m46 15 c3 -5 1 -10 -4 -10 -6 0 -11 5 -11 10 0 6 2 10 4 10 3
0 8 -4 11 -10z m-254 -13 c-6 -8 -7 -18 -3 -22 4 -5 1 -5 -6 -1 -10 6 -10 11
-1 22 6 8 14 14 16 14 3 0 0 -6 -6 -13z m1344 -50 c4 -23 13 -53 19 -67 7 -14
24 -47 37 -75 13 -27 34 -54 45 -60 12 -6 38 -32 57 -57 31 -41 33 -47 20 -61
-14 -13 -19 -12 -50 9 -20 13 -45 24 -56 24 -23 0 -67 -37 -67 -55 0 -6 -13
-21 -29 -33 l-29 -21 -6 57 c-3 31 -9 101 -12 155 l-7 97 42 0 c44 0 51 9 24
31 -18 16 -73 89 -73 98 0 4 18 5 39 3 38 -4 40 -6 46 -45z m-1295 20 c0 -2
-9 -12 -19 -21 -15 -14 -21 -15 -27 -4 -4 7 -4 10 1 6 4 -4 14 -1 22 7 14 14
23 19 23 12z m916 -22 c18 -13 16 -14 -23 -15 -23 0 -44 4 -47 9 -15 24 40 29
70 6z m-899 -22 c-10 -23 -27 -31 -27 -13 0 6 5 10 10 10 6 0 10 5 10 11 0 5
-5 7 -12 3 -6 -4 -8 -3 -5 3 3 5 13 10 21 10 11 0 12 -5 3 -24z m100 12 c5 -4
2 -5 -6 0 -11 6 -13 4 -8 -8 9 -23 0 -21 -13 2 -7 15 -7 19 5 17 8 -1 18 -6
22 -11z m2795 -162 c-3 -16 -7 -22 -10 -15 -4 13 4 42 11 42 2 0 2 -12 -1 -27z
m-1479 -166 c25 -20 21 -44 -10 -62 l-28 -16 30 5 c26 4 33 -1 54 -34 13 -21
64 -77 112 -125 49 -48 91 -95 94 -106 4 -11 11 -16 17 -13 6 4 8 2 4 -4 -3
-6 -2 -13 3 -16 5 -4 12 -2 16 4 9 15 -38 74 -140 175 -52 51 -97 105 -103
124 l-11 32 30 -25 c17 -14 38 -26 47 -26 22 1 52 24 52 40 0 9 -5 8 -18 -3
-26 -23 -58 -21 -76 5 -32 45 -10 82 34 58 11 -6 53 -39 92 -72 l71 -61 -27
-14 c-14 -7 -26 -18 -26 -24 0 -6 14 0 31 12 l31 22 79 -81 c43 -45 79 -85 79
-89 0 -5 -21 -15 -47 -21 -31 -9 -59 -26 -83 -51 l-37 -39 -14 23 c-15 25
-192 208 -277 288 -29 27 -52 52 -52 57 0 5 -3 15 -6 23 -3 8 2 22 11 31 17
16 28 14 68 -17z m-91 -12 c4 -20 3 -23 -8 -14 -16 13 -19 39 -5 39 5 0 11
-11 13 -25z m858 -47 c0 -6 -7 -8 -15 -4 -23 9 -18 0 13 -20 23 -15 25 -15 13
-1 -7 9 -9 17 -3 17 5 0 15 -7 22 -15 7 -9 19 -14 27 -11 7 3 13 0 13 -7 0 -8
3 -8 9 2 7 11 10 9 16 -9 5 -16 10 -19 15 -10 15 24 39 -28 29 -62 -4 -17 -11
-33 -13 -36 -3 -2 -24 14 -48 37 -24 22 -46 41 -50 41 -4 0 -4 7 -1 17 4 10 2
14 -4 10 -13 -8 -76 60 -68 73 3 4 -2 10 -10 14 -8 3 -15 10 -15 16 0 6 16 -1
35 -16 19 -14 35 -31 35 -36z m-934 -129 c13 -21 43 -58 67 -81 24 -24 65 -72
93 -108 75 -98 102 -170 42 -113 -18 17 -66 54 -106 82 -81 57 -121 65 -146
29 -37 -52 -14 -102 103 -221 58 -59 98 -110 122 -157 l36 -69 -15 -63 c-8
-35 -16 -64 -17 -66 -1 -1 -21 5 -45 13 -23 8 -53 15 -67 15 -13 0 -35 7 -48
16 -16 10 -34 14 -50 10 -18 -5 -38 2 -72 23 -38 24 -47 35 -48 57 0 23 -6 30
-32 38 -18 5 -33 13 -33 18 0 5 -20 31 -45 57 -25 26 -45 53 -45 59 0 6 -7 15
-16 20 -14 8 -16 25 -12 113 5 142 18 168 128 241 99 66 145 116 163 172 l12
41 3 -44 c2 -24 14 -60 28 -82z m-1617 -92 c23 -21 57 -45 76 -54 29 -14 35
-23 41 -60 4 -26 2 -49 -4 -55 -5 -5 -35 -10 -67 -10 -47 -1 -64 4 -97 28 -62
44 -81 85 -74 166 2 37 10 77 16 88 11 21 13 20 39 -22 15 -24 47 -60 70 -81z
m255 58 c24 -36 69 -75 180 -154 55 -39 111 -81 125 -93 145 -128 358 -262
446 -281 40 -9 -171 -6 -235 3 -36 5 -87 12 -115 15 -68 9 -209 43 -272 65
-62 23 -102 44 -164 87 -60 42 -78 69 -68 108 29 109 40 157 50 213 13 67 27
77 53 37z m-430 -122 c-55 -46 -100 -63 -164 -63 -47 0 -60 3 -60 15 0 11 11
15 35 15 43 0 150 35 185 60 36 27 40 2 4 -27z m2478 25 l23 -23 -60 -8 c-44
-6 -70 -16 -98 -38 -30 -24 -41 -28 -52 -19 -8 6 -12 17 -9 24 6 16 81 54 122
62 18 4 32 10 32 15 0 16 19 10 42 -13z m-645 -70 c18 -13 33 -25 33 -28 -1
-3 -12 -13 -26 -23 -23 -17 -27 -18 -49 -3 -27 18 -32 45 -13 64 16 16 16 16
55 -10z m2493 -270 c69 -33 149 -76 178 -94 29 -19 55 -34 58 -34 16 0 177
-114 167 -117 -19 -7 -126 23 -263 73 -69 25 -154 56 -190 69 -36 13 -107 38
-158 56 -56 19 -96 39 -99 48 -3 9 -20 50 -37 91 l-32 76 126 -53 c69 -29 181
-81 250 -115z m-3896 34 c120 -77 299 -123 551 -144 233 -19 387 11 455 89 17
18 30 27 30 20 0 -30 -78 -86 -152 -109 -127 -40 -393 -28 -632 27 -143 33
-261 90 -333 160 -29 28 -53 57 -53 63 0 7 16 -6 36 -28 20 -21 63 -57 98 -78z
m-141 71 c-2 -7 4 -13 12 -13 8 0 15 -7 15 -15 0 -8 7 -15 15 -15 8 0 15 -4
15 -10 0 -5 -13 -10 -28 -10 -27 0 -52 -15 -52 -32 0 -12 34 -10 48 4 6 6 24
13 41 14 26 3 28 1 23 -19 -3 -12 -14 -34 -25 -49 -25 -34 -17 -45 16 -23 25
16 43 55 25 55 -5 0 -6 5 -3 10 12 19 25 10 25 -17 0 -21 3 -24 12 -15 19 19
38 14 38 -9 0 -19 2 -20 16 -8 14 11 19 10 34 -8 11 -14 24 -20 38 -17 14 4
22 0 27 -15 7 -23 20 -27 30 -11 11 18 32 11 39 -12 4 -18 8 -20 18 -10 17 17
48 15 48 -3 0 -17 16 -20 25 -5 11 17 35 11 43 -11 8 -20 9 -20 25 -4 20 19
47 14 47 -10 0 -19 14 -19 30 0 18 21 41 19 47 -5 6 -24 19 -26 27 -5 8 22 44
18 51 -5 6 -20 7 -20 25 2 23 27 27 12 5 -19 -13 -19 -13 -23 4 -44 l19 -24
12 26 c9 20 9 32 1 48 -7 11 -8 21 -2 21 5 0 12 -8 16 -17 5 -16 8 -15 25 7
18 24 20 24 36 8 17 -16 19 -16 36 -1 14 13 20 13 33 3 12 -10 15 -10 16 1 1
8 5 -4 8 -25 3 -22 12 -42 20 -44 11 -4 13 3 8 32 -3 20 -2 34 2 31 5 -2 11 5
14 16 4 14 10 18 18 13 10 -6 10 -9 1 -12 -17 -5 -15 -57 3 -72 13 -11 15 -7
14 32 -2 51 7 72 27 64 8 -3 14 -2 14 3 0 4 11 13 24 19 13 6 40 25 60 42 40
36 58 31 70 -16 4 -15 11 -22 18 -18 7 4 8 3 4 -4 -4 -7 -1 -12 8 -12 18 0 22
-16 6 -22 -6 -2 -4 -15 5 -32 9 -17 12 -34 6 -43 -6 -12 -10 -10 -15 11 -3 14
-13 26 -21 26 -14 0 -13 -4 0 -37 19 -44 12 -54 -15 -22 l-21 24 6 -42 c5 -28
3 -43 -4 -43 -6 0 -11 9 -11 19 0 11 -4 22 -9 25 -4 3 -6 16 -4 29 3 14 -3 29
-16 41 -20 18 -21 18 -21 1 0 -10 7 -27 17 -37 9 -10 12 -18 6 -18 -12 0 -5
-49 10 -67 6 -9 6 -13 -2 -13 -6 0 -11 -7 -11 -15 0 -8 -4 -15 -10 -15 -5 0
-10 12 -10 27 0 26 -25 63 -42 63 -15 0 -8 -63 10 -83 16 -19 16 -19 -5 -13
-18 6 -23 3 -23 -9 0 -13 -6 -16 -25 -13 -14 3 -25 1 -25 -3 0 -5 -5 -9 -11
-9 -6 0 -8 8 -4 19 6 19 -13 61 -26 61 -11 0 -18 -40 -8 -46 14 -8 11 -21 -8
-28 -10 -3 -23 -9 -30 -12 -9 -4 -9 2 0 25 8 23 8 33 -2 45 -19 23 -30 20 -37
-9 -4 -15 -1 -32 7 -42 12 -14 11 -15 -9 -9 -16 5 -24 3 -28 -8 -3 -9 -10 -13
-16 -10 -5 3 -4 11 3 20 9 11 8 21 -2 45 -12 30 -13 30 -26 13 -9 -11 -12 -31
-9 -48 5 -24 4 -26 -8 -17 -10 8 -16 9 -21 1 -3 -5 -11 -10 -17 -10 -7 0 -6 5
2 15 9 11 9 22 0 50 -12 35 -13 36 -32 19 -19 -18 -19 -27 -2 -69 7 -19 6 -19
-12 -3 -14 12 -24 14 -37 6 -17 -9 -18 -8 -7 12 9 17 9 29 1 46 -13 29 -22 30
-39 4 -9 -15 -10 -26 -1 -41 13 -25 5 -36 -15 -20 -11 9 -16 9 -22 0 -4 -8 -3
-9 4 -5 8 5 12 -1 12 -15 0 -21 0 -21 -19 2 -14 18 -16 27 -9 37 8 9 7 20 -1
39 -11 25 -12 25 -32 7 -14 -12 -18 -25 -14 -41 6 -24 -10 -33 -18 -10 -3 9
-7 9 -20 -2 -10 -8 -17 -9 -17 -3 0 6 5 14 10 17 12 8 13 35 1 54 -15 24 -44
-13 -37 -47 6 -24 5 -25 -8 -9 -12 15 -15 16 -26 2 -7 -9 -15 -13 -18 -10 -3
3 2 13 12 24 13 15 15 23 6 47 l-11 29 -18 -24 c-10 -13 -16 -34 -14 -50 4
-24 3 -25 -10 -8 -13 15 -16 16 -27 2 -7 -9 -15 -13 -18 -10 -3 3 3 14 13 25
12 13 15 27 11 46 -7 26 -7 26 -27 8 -13 -12 -19 -27 -16 -41 2 -13 0 -26 -4
-29 -5 -3 -9 2 -9 11 0 12 -6 15 -20 10 -23 -7 -28 10 -5 19 11 4 14 13 9 33
-9 38 -11 39 -34 18 -13 -12 -18 -25 -14 -41 6 -22 4 -22 -20 -11 -16 8 -21
16 -15 22 11 11 12 52 0 59 -13 8 -29 -15 -34 -49 -4 -27 -5 -28 -12 -8 -5 15
-12 20 -23 16 -14 -5 -14 -3 2 15 25 29 15 78 -14 62 -27 -15 -31 -25 -20 -54
7 -20 6 -26 -5 -26 -7 0 -15 10 -17 23 -2 15 -9 21 -23 19 -19 -2 -19 -2 -2
11 10 8 17 28 17 46 0 31 0 31 -25 15 -21 -14 -25 -22 -20 -45 3 -15 2 -30 -4
-33 -5 -3 -12 7 -16 24 -4 17 -11 28 -16 24 -17 -10 -49 7 -49 26 0 13 -8 20
-27 22 -22 2 -28 8 -26 25 2 16 -4 23 -20 25 -16 2 -22 10 -22 28 0 16 -7 27
-19 30 -11 3 -21 10 -23 15 -5 15 49 72 54 58 6 -16 35 -17 51 -1 9 9 12 9 12
0 0 -7 -10 -22 -22 -34 l-23 -23 23 -3 c25 -4 65 25 56 39 -2 4 5 13 16 19 11
6 20 15 20 21 0 6 -4 7 -10 4 -16 -10 -120 -13 -120 -4 0 16 -30 9 -50 -11
-11 -11 -20 -16 -20 -11 0 19 45 41 81 41 24 0 39 5 43 16 7 19 72 16 69 -3z
m-273 -87 c0 -3 -4 -8 -10 -11 -5 -3 -10 -1 -10 4 0 6 5 11 10 11 6 0 10 -2
10 -4z m80 -156 c0 -5 -4 -10 -10 -10 -5 0 -10 5 -10 10 0 6 5 10 10 10 6 0
10 -4 10 -10z m132 -32 c-8 -8 -9 -4 -5 13 4 13 8 18 11 10 2 -7 -1 -18 -6
-23z m-107 -18 c3 -5 -1 -10 -10 -10 -9 0 -13 5 -10 10 3 6 8 10 10 10 2 0 7
-4 10 -10z m-480 -57 c62 -62 187 -241 179 -255 -3 -5 -13 -6 -22 -4 -10 3
-30 -1 -46 -9 -41 -22 -45 -9 -8 25 39 35 39 42 6 57 -20 9 -30 9 -44 0 -32
-19 -36 2 -5 30 l28 27 -29 8 c-17 4 -30 4 -32 -2 -4 -10 -32 -14 -32 -5 0 3
10 19 22 35 27 37 18 48 -27 31 -34 -12 -55 -9 -55 9 0 5 14 11 30 15 17 4 30
11 30 17 0 6 -3 9 -6 5 -3 -3 -19 -1 -35 5 -21 7 -33 7 -43 -1 -10 -8 -16 -8
-26 4 -13 16 -10 18 35 28 41 9 53 6 80 -20z m545 -13 c0 -5 -4 -10 -10 -10
-5 0 -10 5 -10 10 0 6 5 10 10 10 6 0 10 -4 10 -10z m1240 -52 c-1 -8 -6 -6
-15 6 -20 26 -19 42 0 22 8 -8 15 -21 15 -28z m1206 10 l17 -33 -27 24 c-27
25 -33 41 -16 41 5 0 17 -15 26 -32z m-755 -14 c-19 -15 -31 -9 -31 16 0 16 3
17 24 7 21 -10 22 -13 7 -23z m-1566 -3 c3 -5 1 -12 -5 -16 -5 -3 -10 1 -10 9
0 18 6 21 15 7z m1604 -31 c8 0 4 -8 -10 -19 -27 -22 -19 -37 20 -43 30 -4 41
-28 12 -28 -11 0 -23 -4 -26 -10 -14 -23 -34 -9 -40 28 -3 20 -8 48 -11 61 -4
21 -2 23 18 17 13 -3 29 -6 37 -6z m-1549 -15 c0 -8 -4 -15 -10 -15 -5 0 -10
7 -10 15 0 8 5 15 10 15 6 0 10 -7 10 -15z m310 11 c0 -3 -4 -8 -10 -11 -5 -3
-10 -1 -10 4 0 6 5 11 10 11 6 0 10 -2 10 -4z m-225 -46 c3 -5 2 -10 -4 -10
-5 0 -13 5 -16 10 -3 6 -2 10 4 10 5 0 13 -4 16 -10z m95 -4 c0 -16 -14 -36
-26 -36 -16 0 -16 2 -8 24 5 14 34 24 34 12z m950 -26 c0 -5 -7 -10 -16 -10
-8 0 -12 5 -9 10 3 6 10 10 16 10 5 0 9 -4 9 -10z m-710 -45 c0 -8 -7 -15 -15
-15 -16 0 -20 12 -8 23 11 12 23 8 23 -8z m180 5 c0 -5 -4 -10 -9 -10 -6 0
-13 5 -16 10 -3 6 1 10 9 10 9 0 16 -4 16 -10z m-270 -10 c0 -5 -7 -10 -15
-10 -8 0 -15 5 -15 10 0 6 7 10 15 10 8 0 15 -4 15 -10z m172 -2 c-9 -9 -15
-9 -24 0 -9 9 -7 12 12 12 19 0 21 -3 12 -12z m468 2 c0 -5 -5 -10 -11 -10 -5
0 -7 5 -4 10 3 6 8 10 11 10 2 0 4 -4 4 -10z m70 0 c0 -5 -2 -10 -4 -10 -3 0
-8 5 -11 10 -3 6 -1 10 4 10 6 0 11 -4 11 -10z m500 -16 c0 -12 12 -18 32 -16
3 1 12 -5 18 -13 11 -13 8 -15 -18 -15 -17 0 -34 -4 -37 -10 -9 -14 12 -48 35
-55 33 -11 24 -32 -11 -27 -29 4 -31 3 -24 -19 4 -13 15 -30 26 -38 20 -14 26
-41 10 -41 -5 0 -21 4 -35 10 -40 15 -32 -6 14 -38 48 -33 51 -47 9 -38 -17 3
-39 6 -48 6 -16 0 -16 9 -4 128 8 70 12 139 9 153 -3 15 -2 29 1 33 9 8 23 -3
23 -20z m-740 -4 c0 -5 -4 -10 -10 -10 -5 0 -10 5 -10 10 0 6 5 10 10 10 6 0
10 -4 10 -10z m65 0 c3 -5 -1 -10 -10 -10 -9 0 -13 5 -10 10 3 6 8 10 10 10 2
0 7 -4 10 -10z m-1375 -50 c20 -28 20 -30 3 -30 -11 0 -24 5 -30 11 -8 8 -13
8 -17 0 -9 -14 -46 -14 -46 -1 0 6 11 16 25 22 14 6 25 15 25 20 0 17 20 7 40
-22z m60 -90 c0 -11 -109 -25 -118 -15 -4 4 -2 10 5 12 7 2 27 15 45 28 33 23
33 23 51 3 9 -11 17 -24 17 -28z m28 -35 c16 -34 16 -35 -10 -35 -13 0 -32 -7
-42 -15 -11 -8 -28 -15 -38 -15 -30 0 -20 28 16 45 19 9 37 23 40 31 8 21 21
17 34 -11z m42 -64 c14 -28 13 -41 -5 -41 -9 0 -29 -10 -45 -22 -41 -30 -46
-18 -10 27 16 21 30 42 30 46 0 16 19 9 30 -10z m-196 -65 c-3 -9 -10 -16 -15
-16 -14 0 -11 28 4 33 16 6 19 3 11 -17z m257 -28 c10 -18 -4 -34 -21 -23 -5
3 -23 -1 -40 -10 -37 -19 -38 -7 -3 46 29 44 33 43 64 -13z m1836 18 c4 -7 22
-17 38 -23 40 -13 29 -29 -17 -25 -32 2 -38 -1 -38 -17 0 -11 14 -27 35 -40
36 -21 50 -50 18 -35 -10 4 -35 8 -56 8 -34 0 -38 2 -33 21 3 11 10 44 16 73
12 52 22 63 37 38z m-2007 -116 c0 -20 -5 -30 -15 -30 -18 0 -20 31 -3 48 17
17 18 16 18 -18z m1967 -47 c3 -10 20 -33 36 -50 33 -35 20 -46 -21 -17 -13 9
-29 13 -37 10 -16 -6 -19 13 -9 52 8 26 22 29 31 5z m-1917 -46 c0 -23 -17
-47 -32 -47 -11 0 -10 28 2 51 14 26 30 24 30 -4z m2180 -25 c0 -15 -2 -15
-10 -2 -13 20 -13 33 0 25 6 -3 10 -14 10 -23z"/>
<path d="M1845 2585 l-30 -14 35 -1 c34 0 34 0 12 -16 -31 -21 -28 -40 3 -20
14 9 25 14 25 11 0 -4 7 0 15 9 17 16 20 36 6 36 -5 0 -15 2 -23 4 -7 2 -26
-2 -43 -9z"/>
<path d="M1937 2525 c-10 -14 -14 -25 -9 -25 10 0 42 33 42 43 0 14 -16 5 -33
-18z"/>
<path d="M1960 2455 c0 -8 5 -15 10 -15 6 0 10 7 10 15 0 8 -4 15 -10 15 -5 0
-10 -7 -10 -15z"/>
<path d="M1927 2443 c-4 -3 -7 -11 -7 -17 0 -6 5 -5 12 2 6 6 9 14 7 17 -3 3
-9 2 -12 -2z"/>
<path d="M1885 2410 c-3 -5 -1 -10 4 -10 6 0 11 5 11 10 0 6 -2 10 -4 10 -3 0
-8 -4 -11 -10z"/>
<path d="M1840 2375 c0 -9 5 -15 11 -13 6 2 11 8 11 13 0 5 -5 11 -11 13 -6 2
-11 -4 -11 -13z"/>
<path d="M2217 2306 c-8 -20 16 -39 30 -25 14 14 6 39 -12 39 -7 0 -15 -6 -18
-14z"/>
<path d="M2191 2256 c-9 -10 -8 -16 4 -26 19 -16 41 1 32 24 -8 20 -21 20 -36
2z"/>
<path d="M2162 2193 c4 -21 33 -25 33 -3 0 8 -8 16 -18 18 -14 3 -18 -1 -15
-15z"/>
<path d="M2130 2141 c0 -15 6 -21 21 -21 25 0 22 33 -4 38 -12 2 -17 -3 -17
-17z"/>
<path d="M2117 2103 c-4 -3 -7 -12 -7 -20 0 -15 26 -18 34 -4 7 11 -18 33 -27
24z"/>
<path d="M2080 2036 c0 -21 21 -31 30 -15 5 7 6 17 4 21 -9 14 -34 9 -34 -6z"/>
<path d="M2045 1991 c-8 -15 3 -31 21 -31 9 0 14 7 12 17 -4 20 -24 28 -33 14z"/>
<path d="M2023 1934 c-3 -8 -1 -20 6 -27 14 -14 47 15 37 32 -10 16 -36 13
-43 -5z"/>
<path d="M3522 1598 c-19 -19 -14 -30 8 -18 11 6 20 15 20 20 0 14 -14 12 -28
-2z"/>
<path d="M3544 1566 c-10 -8 -16 -17 -13 -20 3 -4 17 2 30 13 27 23 13 28 -17
7z"/>
<path d="M1300 1571 c0 -6 4 -13 10 -16 6 -3 7 1 4 9 -7 18 -14 21 -14 7z"/>
<path d="M1330 1520 c6 -11 20 -25 33 -31 18 -10 17 -6 -7 20 -34 36 -41 39
-26 11z"/>
<path d="M1463 1293 c-7 -2 -13 -9 -13 -14 0 -14 26 -10 40 6 10 12 10 15 -1
14 -8 0 -20 -3 -26 -6z"/>
<path d="M1362 1208 c-18 -18 -15 -28 8 -28 10 0 24 9 30 20 9 17 8 20 -8 20
-10 0 -23 -5 -30 -12z"/>
<path d="M1545 1180 c-10 -11 -16 -22 -14 -25 7 -6 49 24 49 36 0 15 -16 10
-35 -11z"/>
<path d="M1466 1164 c-9 -8 -16 -20 -16 -25 0 -18 42 -5 58 19 13 20 13 22 -6
22 -11 0 -28 -7 -36 -16z"/>
<path d="M1397 1163 c-4 -3 -7 -15 -7 -25 0 -26 28 -20 48 10 14 21 13 22 -10
22 -14 0 -28 -3 -31 -7z"/>
<path d="M1641 1134 c-22 -28 -27 -44 -13 -44 15 0 40 25 47 48 9 30 -9 28
-34 -4z"/>
<path d="M1532 1143 c-17 -7 -46 -63 -32 -63 14 0 60 46 60 60 0 11 -7 12 -28
3z"/>
<path d="M2700 1131 c0 -16 -4 -21 -15 -17 -8 3 -15 1 -15 -3 0 -5 7 -11 15
-15 8 -3 15 -1 15 4 0 5 7 7 15 4 19 -8 19 7 0 32 -14 18 -14 18 -15 -5z"/>
<path d="M1692 1118 c-16 -16 -15 -58 1 -58 20 0 37 22 37 47 0 25 -19 30 -38
11z"/>
<path d="M1440 1099 c-7 -11 -9 -23 -7 -26 11 -10 45 8 50 27 7 28 -29 27 -43
-1z"/>
<path d="M1574 1102 c-13 -8 -25 -52 -15 -52 15 0 51 32 51 46 0 15 -18 18
-36 6z"/>
<path d="M1768 1096 c-11 -8 -18 -26 -18 -47 l0 -34 27 27 c21 21 25 31 17 47
-8 17 -12 18 -26 7z"/>
<path d="M1636 1077 c-11 -8 -17 -23 -14 -40 3 -27 4 -27 26 -12 12 9 22 27
22 41 0 27 -8 30 -34 11z"/>
<path d="M1827 1072 c-16 -17 -14 -62 3 -62 18 0 41 40 35 59 -8 26 -17 26
-38 3z"/>
<path d="M2647 1084 c-8 -9 11 -44 23 -44 6 0 10 6 10 14 0 16 -24 38 -33 30z"/>
<path d="M2683 1076 c5 -16 27 -19 27 -3 0 7 -7 14 -15 14 -9 0 -14 -5 -12
-11z"/>
<path d="M1503 1073 c-18 -7 -16 -53 1 -53 17 0 29 16 33 43 3 17 -9 20 -34
10z"/>
<path d="M2727 1061 c5 -20 33 -38 33 -22 0 20 -13 41 -25 41 -8 0 -11 -8 -8
-19z"/>
<path d="M1902 1061 c-8 -5 -12 -22 -10 -42 l3 -34 18 27 c20 29 12 64 -11 49z"/>
<path d="M2610 1051 c0 -20 27 -48 37 -37 8 7 -17 56 -29 56 -4 0 -8 -8 -8
-19z"/>
<path d="M1704 1044 c-15 -14 -19 -26 -15 -46 5 -24 8 -25 24 -13 13 9 17 23
15 45 -3 32 -3 32 -24 14z"/>
<path d="M1962 1048 c-14 -14 -15 -47 -3 -67 13 -20 39 23 33 54 -5 28 -12 31
-30 13z"/>
<path d="M2560 1051 c0 -20 20 -61 30 -61 14 0 13 43 -2 58 -14 14 -28 16 -28
3z"/>
<path d="M2036 1031 c-19 -21 -16 -71 4 -71 18 0 34 48 24 71 l-9 21 -19 -21z"/>
<path d="M2700 1041 c0 -17 12 -41 20 -41 10 0 1 38 -11 46 -5 3 -9 1 -9 -5z"/>
<path d="M2108 1018 c-12 -19 -13 -29 -3 -51 l12 -29 17 26 c10 16 14 35 10
51 -8 31 -17 32 -36 3z"/>
<path d="M1767 1012 c-17 -18 -23 -53 -11 -65 12 -11 44 28 44 55 0 32 -10 35
-33 10z"/>
<path d="M2192 1018 c-14 -14 -15 -47 -2 -68 8 -13 11 -12 24 5 17 22 19 35
10 59 -7 19 -16 20 -32 4z m15 -33 c0 -8 -4 -12 -9 -9 -5 3 -6 10 -3 15 9 13
12 11 12 -6z"/>
<path d="M2420 1010 c-15 -28 4 -85 21 -59 11 18 11 50 0 68 -7 11 -11 9 -21
-9z"/>
<path d="M1836 1001 c-13 -15 -16 -28 -11 -51 7 -30 8 -31 26 -14 11 10 19 30
19 51 0 38 -9 41 -34 14z"/>
<path d="M2343 997 c-9 -18 -7 -28 6 -45 l16 -22 14 30 c10 24 10 34 1 45 -17
21 -25 19 -37 -8z"/>
<path d="M1907 985 c-16 -22 -16 -75 0 -75 14 0 32 38 33 68 0 38 -9 40 -33 7z"/>
<path d="M2610 987 c0 -25 17 -47 37 -47 19 0 16 34 -5 53 -25 23 -32 21 -32
-6z"/>
<path d="M1981 966 c-13 -23 -7 -66 8 -66 19 0 32 30 26 60 -8 36 -17 38 -34
6z"/>
<path d="M2567 984 c-13 -14 -7 -62 9 -68 23 -9 24 -8 24 17 0 27 -22 61 -33
51z"/>
<path d="M2055 954 c-14 -22 -15 -31 -5 -53 l12 -26 19 24 c13 15 17 31 13 45
-11 36 -20 38 -39 10z"/>
<path d="M2141 951 c-13 -24 -14 -41 -2 -60 8 -12 12 -12 25 -2 20 17 21 55 2
70 -12 10 -17 8 -25 -8z"/>
<path d="M2221 946 c-11 -19 -10 -28 2 -51 l14 -28 17 24 c13 21 14 30 3 52
-15 33 -20 33 -36 3z"/>
<path d="M2312 948 c-21 -21 -12 -78 13 -78 21 0 28 36 13 65 -11 20 -16 23
-26 13z"/>
<path d="M2390 941 c-14 -27 -5 -74 13 -68 15 5 21 51 9 73 -9 15 -11 15 -22
-5z"/>
<path d="M2455 941 c-7 -22 17 -66 28 -54 12 11 7 50 -7 62 -11 10 -16 8 -21
-8z"/>
<path d="M2510 942 c0 -10 6 -27 14 -38 13 -17 15 -17 21 -2 7 18 -10 58 -25
58 -6 0 -10 -8 -10 -18z"/>
<path d="M2560 871 c0 -16 7 -31 15 -35 11 -4 15 2 15 23 0 16 -7 31 -15 35
-11 4 -15 -2 -15 -23z"/>
<path d="M3661 2871 c-9 -6 -6 -8 13 -8 14 0 23 3 20 8 -7 11 -15 11 -33 0z"/>
<path d="M3054 2792 c-42 -28 -34 -112 11 -112 12 0 31 8 42 18 10 9 13 13 7
9 -7 -5 -25 -7 -41 -5 -22 2 -29 9 -31 31 -6 51 33 74 70 40 20 -18 25 -4 6
15 -13 13 -47 16 -64 4z"/>
<path d="M3240 2792 c-50 -14 -77 -34 -93 -70 -14 -32 -29 -46 -74 -68 -32
-15 -52 -29 -45 -32 7 -2 21 3 30 11 9 8 28 18 42 22 32 9 60 34 60 52 0 26
52 65 77 58 14 -3 33 1 44 8 20 14 20 15 -3 19 -13 2 -30 3 -38 0z"/>
<path d="M2950 2748 c0 -7 5 -20 10 -28 8 -12 10 -9 10 13 0 15 -4 27 -10 27
-5 0 -10 -6 -10 -12z"/>
<path d="M3060 2741 c0 -25 35 -30 44 -6 3 8 1 15 -3 15 -5 0 -16 3 -25 6 -12
4 -16 0 -16 -15z"/>
<path d="M2920 2738 c0 -9 5 -20 10 -23 13 -8 13 5 0 25 -8 13 -10 13 -10 -2z"/>
<path d="M3238 2733 c-6 -7 -16 -13 -22 -13 -6 0 -32 -22 -57 -48 -44 -46 -57
-52 -159 -80 l-35 -10 34 -1 c59 -2 107 20 177 80 63 55 80 64 112 60 6 -1 12
4 12 11 0 17 -48 17 -62 1z"/>
<path d="M2900 2709 c1 -19 28 -54 36 -46 3 3 -3 18 -15 33 -11 15 -21 20 -21
13z"/>
<path d="M2870 2691 c0 -7 22 -54 38 -80 1 -2 5 -2 8 1 3 3 -4 24 -16 47 -20
40 -30 50 -30 32z"/>
<path d="M2866 2637 c3 -10 9 -15 12 -12 3 3 0 11 -7 18 -10 9 -11 8 -5 -6z"/>
<path d="M2961 2627 c-13 -21 -12 -21 5 -5 10 10 16 20 13 22 -3 3 -11 -5 -18
-17z"/>
<path d="M2932 2610 c0 -14 2 -19 5 -12 2 6 2 18 0 25 -3 6 -5 1 -5 -13z"/>
<path d="M2770 2612 c0 -14 23 -32 42 -32 27 0 22 19 -8 30 -31 12 -34 12 -34
2z"/>
<path d="M3750 2555 c6 -8 18 -11 26 -8 18 7 13 12 -16 18 -18 3 -20 2 -10
-10z"/>
<path d="M4060 2506 c0 -2 7 -7 16 -10 8 -3 12 -2 9 4 -6 10 -25 14 -25 6z"/>
<path d="M4110 2491 c0 -6 4 -13 10 -16 6 -3 7 1 4 9 -7 18 -14 21 -14 7z"/>
<path d="M4300 2356 c0 -2 7 -7 16 -10 8 -3 12 -2 9 4 -6 10 -25 14 -25 6z"/>
<path d="M4059 2307 c-7 -12 -2 -56 6 -54 14 5 56 -45 50 -60 -2 -7 -1 -12 3
-11 4 2 19 -6 34 -16 18 -11 34 -15 45 -11 10 4 30 7 45 6 29 -3 41 9 32 33
-6 15 -8 15 -19 -1 -13 -17 -14 -17 -33 5 l-20 22 -6 -25 c-4 -14 -11 -23 -17
-19 -6 3 -8 12 -5 19 3 8 -5 16 -19 19 -14 4 -34 23 -47 46 -19 33 -44 57 -49
47z"/>
<path d="M3790 2095 c-7 -9 -8 -15 -2 -15 5 0 12 7 16 15 3 8 4 15 2 15 -2 0
-9 -7 -16 -15z"/>
<path d="M3933 2095 c0 -8 4 -12 9 -9 5 3 6 10 3 15 -9 13 -12 11 -12 -6z"/>
<path d="M4487 2063 c-4 -3 -7 -13 -7 -22 1 -13 3 -13 11 2 11 19 8 33 -4 20z"/>
<path d="M3272 1991 c6 -10 25 -27 42 -36 30 -17 30 -16 -7 19 -41 40 -53 46
-35 17z"/>
<path d="M3380 1980 c19 -16 39 -30 46 -30 17 0 37 27 31 42 -4 8 -6 7 -6 -4
-2 -30 -21 -31 -64 -3 l-42 26 35 -31z"/>
<path d="M4280 1952 c-13 -14 -12 -15 2 -9 9 3 19 1 22 -6 2 -7 5 -5 5 5 1 24
-12 29 -29 10z"/>
<path d="M4370 1910 c-13 -8 -13 -10 2 -10 9 0 20 5 23 10 8 13 -5 13 -25 0z"/>
<path d="M4409 1903 c-1 -4 -3 -19 -4 -32 -1 -13 -9 -27 -16 -32 -10 -6 -10
-9 -2 -9 7 0 17 9 23 21 9 16 14 18 26 8 25 -20 24 -5 -2 24 -13 15 -25 24
-25 20z"/>
<path d="M4666 1875 c-17 -13 -17 -15 -3 -30 15 -14 17 -14 23 10 8 33 4 37
-20 20z"/>
<path d="M4356 1851 c-4 -5 3 -7 14 -4 23 6 26 13 6 13 -8 0 -17 -4 -20 -9z"/>
<path d="M4295 1839 c-4 -6 -5 -12 -2 -15 2 -3 7 2 10 11 7 17 1 20 -8 4z"/>
<path d="M4466 1831 c-4 -7 -5 -15 -2 -18 9 -9 19 4 14 18 -4 11 -6 11 -12 0z"/>
<path d="M4303 1811 c-15 -24 -12 -41 13 -73 l20 -26 11 27 c6 14 14 42 18 61
7 35 7 35 -10 12 -9 -13 -14 -30 -11 -38 3 -9 1 -12 -4 -9 -6 3 -10 14 -11 23
0 11 -2 12 -6 4 -3 -7 1 -19 7 -28 15 -17 7 -30 -10 -19 -8 5 -10 22 -7 46 3
22 4 39 3 39 0 0 -6 -8 -13 -19z"/>
<path d="M4751 1804 c0 -11 3 -14 6 -6 3 7 2 16 -1 19 -3 4 -6 -2 -5 -13z"/>
<path d="M4480 1740 c0 -13 18 -22 24 -11 3 5 -1 11 -9 15 -8 3 -15 1 -15 -4z"/>
<path d="M4660 1730 c0 -5 5 -10 11 -10 5 0 7 5 4 10 -3 6 -8 10 -11 10 -2 0
-4 -4 -4 -10z"/>
<path d="M4883 1705 c3 -6 2 -17 -4 -25 -7 -12 -9 -11 -9 4 0 11 -3 17 -6 13
-3 -3 -3 -14 0 -25 5 -14 13 -18 26 -15 16 4 19 2 14 -13 -5 -18 -5 -18 10 0
12 15 13 22 3 30 -6 6 -18 18 -26 26 -8 8 -11 10 -8 5z"/>
<path d="M4450 1671 c0 -6 4 -13 10 -16 6 -3 7 1 4 9 -7 18 -14 21 -14 7z"/>
<path d="M3175 1649 c-12 -19 5 -23 22 -6 16 16 16 17 1 17 -9 0 -20 -5 -23
-11z"/>
<path d="M4660 1640 c-8 -5 -10 -10 -5 -10 6 0 17 5 25 10 8 5 11 10 5 10 -5
0 -17 -5 -25 -10z"/>
<path d="M4630 1631 c0 -6 4 -13 10 -16 6 -3 7 1 4 9 -7 18 -14 21 -14 7z"/>
<path d="M3358 1439 c-10 -5 -18 -15 -18 -21 0 -7 7 -5 18 4 9 9 24 18 32 21
13 5 13 5 0 6 -8 0 -23 -4 -32 -10z"/>
<path d="M3378 1414 c-34 -18 -35 -24 -5 -24 12 0 28 9 35 20 14 24 7 25 -30
4z"/>
<path d="M3168 1329 c-10 -5 -18 -17 -18 -26 0 -14 2 -14 15 3 14 18 15 17 9
-11 l-7 -30 22 27 c25 32 27 39 4 31 -11 -4 -14 -3 -9 5 9 14 6 14 -16 1z"/>
<path d="M5090 1272 c0 -12 19 -26 26 -19 2 2 -2 10 -11 17 -9 8 -15 8 -15 2z"/>
<path d="M3263 1215 c-7 -8 -13 -20 -13 -26 0 -7 9 -2 20 11 11 13 20 25 20
27 0 8 -16 1 -27 -12z"/>
<path d="M3730 1125 c0 -22 4 -34 10 -30 6 3 10 17 10 30 0 13 -4 27 -10 30
-6 4 -10 -8 -10 -30z"/>
<path d="M3588 1043 c5 -60 8 -71 18 -60 14 13 8 87 -7 102 -14 15 -15 11 -11
-42z"/>
<path d="M4725 990 c3 -5 11 -10 16 -10 6 0 7 5 4 10 -3 6 -11 10 -16 10 -6 0
-7 -4 -4 -10z"/>
<path d="M3449 985 c-8 -8 3 -75 12 -75 5 0 9 12 9 28 0 28 -13 56 -21 47z"/>
<path d="M4568 984 c-11 -10 -10 -66 0 -60 5 3 17 -29 27 -70 19 -76 29 -89
40 -53 6 16 17 3 60 -73 113 -197 450 -578 512 -578 21 0 16 20 -24 100 -43
87 -53 110 -49 110 1 0 39 -48 84 -107 100 -133 214 -258 229 -252 7 2 -15 33
-50 69 -86 89 -139 155 -237 290 -45 63 -88 120 -94 125 -6 6 -11 17 -11 25 0
8 -5 14 -11 13 -6 -1 -12 8 -12 20 0 12 -14 46 -32 76 -17 30 -50 91 -72 135
-22 45 -44 83 -49 86 -7 5 -30 54 -33 70 -1 3 -9 16 -19 30 l-17 24 0 -27 c0
-15 -4 -27 -10 -27 -5 0 -10 -4 -10 -9 0 -6 10 -8 22 -6 16 4 19 2 10 -7 -17
-17 -15 -33 2 -19 11 9 17 5 32 -16 26 -38 46 -85 39 -91 -15 -15 -46 -10 -59
10 -12 17 -13 24 -3 30 9 6 9 8 0 8 -35 0 -10 -54 61 -135 15 -16 34 -42 43
-57 17 -27 43 -45 43 -29 0 5 -7 11 -15 15 -8 3 -15 12 -15 21 0 8 -4 15 -9
15 -4 0 -6 11 -3 25 2 14 9 22 14 19 5 -3 7 -13 4 -21 -4 -9 4 -25 18 -38 17
-16 23 -30 20 -46 -4 -21 -3 -21 4 -5 8 19 9 18 16 -5 5 -13 7 -28 6 -34 -1
-5 7 -15 16 -22 10 -7 15 -13 11 -13 -4 0 29 -71 73 -157 44 -86 80 -160 80
-165 0 -5 -12 -2 -27 6 -33 17 -115 102 -238 246 -50 58 -97 113 -107 123 -44
49 -132 190 -162 260 -33 76 -34 77 -41 45 -7 -33 -7 -33 -22 22 -8 30 -17 68
-21 83 -4 16 -10 25 -14 21z m342 -253 c-6 -12 -6 -22 -1 -25 5 -4 11 0 13 6
3 7 5 -2 5 -19 0 -33 0 -33 -16 -10 -8 12 -25 30 -36 39 -11 10 -15 17 -7 18
6 0 12 -5 12 -11 0 -6 7 -3 16 5 21 22 27 20 14 -3z"/>
<path d="M4760 930 c0 -5 5 -10 11 -10 5 0 7 5 4 10 -3 6 -8 10 -11 10 -2 0
-4 -4 -4 -10z"/>
<path d="M4740 898 c0 -7 8 -26 19 -41 17 -27 19 -27 24 -8 3 12 1 19 -4 15
-5 -3 -13 6 -19 20 -10 28 -20 34 -20 14z"/>
<path d="M4790 836 c0 -8 4 -17 9 -20 5 -4 7 3 4 14 -6 23 -13 26 -13 6z"/>
<path d="M4825 840 c3 -5 8 -10 11 -10 2 0 4 5 4 10 0 6 -5 10 -11 10 -5 0 -7
-4 -4 -10z"/>
<path d="M4876 777 c3 -10 9 -15 12 -12 3 3 0 11 -7 18 -10 9 -11 8 -5 -6z"/>
<path d="M4850 770 c0 -5 5 -10 11 -10 5 0 7 5 4 10 -3 6 -8 10 -11 10 -2 0
-4 -4 -4 -10z"/>
<path d="M2925 691 c-9 -8 -137 -54 -255 -93 -58 -18 -123 -48 -118 -53 3 -3
27 4 54 14 27 11 89 32 138 47 115 35 238 94 198 94 -4 0 -12 -4 -17 -9z"/>
<path d="M1358 648 c13 -13 155 -38 447 -79 109 -15 203 -38 247 -60 48 -25
67 -24 36 0 -55 44 -156 65 -478 102 -47 5 -124 18 -173 27 -48 10 -84 15 -79
10z"/>
<path d="M5280 586 c0 -2 8 -10 18 -17 15 -13 16 -12 3 4 -13 16 -21 21 -21
13z"/>
<path d="M5376 507 c3 -10 9 -15 12 -12 3 3 0 11 -7 18 -10 9 -11 8 -5 -6z"/>
<path d="M2387 475 c-30 -27 -83 -33 -118 -15 -10 6 -19 7 -19 2 0 -15 48 -35
81 -34 23 0 43 11 68 36 40 41 31 49 -12 11z"/>
<path d="M2066 377 c3 -10 9 -15 12 -12 3 3 0 11 -7 18 -10 9 -11 8 -5 -6z"/>
<path d="M2120 342 c0 -7 -5 -10 -12 -6 -14 9 -6 -6 45 -75 44 -60 145 -164
175 -180 39 -21 11 31 -53 96 -33 35 -59 63 -57 63 3 0 -9 12 -27 28 -17 15
-40 41 -51 57 -11 17 -20 24 -20 17z"/>
<path d="M5513 331 c0 -11 5 -18 9 -15 4 3 5 11 1 19 -7 21 -12 19 -10 -4z"/>
<path d="M5546 297 c3 -10 9 -15 12 -12 3 3 0 11 -7 18 -10 9 -11 8 -5 -6z"/>
<path d="M5600 196 c0 -2 7 -7 16 -10 8 -3 12 -2 9 4 -6 10 -25 14 -25 6z"/>
<path d="M2365 60 c3 -5 8 -10 11 -10 2 0 4 5 4 10 0 6 -5 10 -11 10 -5 0 -7
-4 -4 -10z"/>
<path d="M1445 43 c-12 -2 -26 -13 -33 -23 -11 -18 -9 -20 17 -20 23 0 30 5
33 25 3 14 5 24 4 24 0 -1 -10 -4 -21 -6z"/>
<path d="M5700 29 c0 -5 5 -7 10 -4 6 3 10 8 10 11 0 2 -4 4 -10 4 -5 0 -10
-5 -10 -11z"/>
</g>
</svg>
